<?xml version="1.0" encoding="utf-8"?>
<!-- Generator: Adobe Illustrator 16.0.0, SVG Export Plug-In . SVG Version: 6.00 Build 0)  -->
<!DOCTYPE svg PUBLIC "-//W3C//DTD SVG 1.1//EN" "http://www.w3.org/Graphics/SVG/1.1/DTD/svg11.dtd">
<svg version="1.1" id="Layer_1" xmlns="http://www.w3.org/2000/svg" xmlns:xlink="http://www.w3.org/1999/xlink" x="0px" y="0px"
	 width="400px" height="400px" viewBox="0 0 400 400" enable-background="new 0 0 400 400" xml:space="preserve">
<path fill="#F5F6FA" d="M205.896,251.299h-82.024c-4.063,0-7.353-3.301-7.353-7.34c0-4.056,3.291-7.33,7.353-7.33h31.173h21.344
	c4.063,0,7.337-3.293,7.337-7.34c0-4.031-3.274-7.314-7.337-7.314h-31.674H71.673c-4.024,0-7.324-3.283-7.324-7.33
	s3.299-7.332,7.324-7.332h37.823h18.192c4.055,0,7.319-3.292,7.319-7.348c0-4.027-3.265-7.32-7.319-7.32H63.009H49.185
	c-4.059,0-7.307-3.275-7.307-7.322c0-4.039,3.248-7.331,7.307-7.331h117.625h4.371c4.033,0,7.337-3.292,7.337-7.33
	c0-4.056-3.304-7.349-7.337-7.349H102.77c-3.944-0.102-7.141-3.301-7.141-7.279c0-4.039,3.274-7.332,7.332-7.332h102.943
	c19.73-44.932,64.581-76.321,116.789-76.321c16.338,0,31.949,3.105,46.307,8.709C334.193,37.762,280.811,10,220.924,10
	C116.039,10,31,95.069,31,199.999C31,304.931,116.039,390,220.924,390c59.879,0,113.253-27.754,148.064-71.077
	c-14.35,5.601-29.957,8.705-46.295,8.705C270.485,327.628,225.635,296.234,205.896,251.299z"/>
</svg>
