<?xml version="1.0" encoding="utf-8"?>
<!-- Generator: Adobe Illustrator 16.0.0, SVG Export Plug-In . SVG Version: 6.00 Build 0)  -->
<!DOCTYPE svg PUBLIC "-//W3C//DTD SVG 1.1//EN" "http://www.w3.org/Graphics/SVG/1.1/DTD/svg11.dtd">
<svg version="1.1" id="Layer_1" xmlns="http://www.w3.org/2000/svg" xmlns:xlink="http://www.w3.org/1999/xlink" x="0px" y="0px"
	 width="400px" height="400px" viewBox="0 0 400 400" enable-background="new 0 0 400 400" xml:space="preserve">
<g>
	<path fill="#F5F6FA" d="M54.702,220.912c0,0-10.606,4.978-21.968,12.143c-13.609,8.583-19.868,17.859-19.868,17.859l9.74,0.747
		c0,0-10.979,12.105-12.261,31.332c-1.521,22.835,11.276,36.905,11.276,36.905l-9.636-2.535c0,0,7.811,9.65,20.364,18.26
		c9.808,6.727,21.799,11.594,21.799,11.594s-0.633-3.193-0.249-8.743c0.385-5.55,0.687-9.92,0.687-9.92l-11.732-3.081
		c0,0-12.376-20.201-11.221-39.692c1.346-22.713,12.462-32.476,12.462-32.476l11.895,0.912c0,0-1.533-10.35-1.517-16.202
		S54.702,220.912,54.702,220.912z"/>
	<path fill="#F5F6FA" d="M88.617,53.217c0,0-8.828,3.729-18.361,10.753c-9.531,7.026-17.182,16.767-17.182,16.767l12.399-1.88
		c0,0-5.132,10.353-3.692,27.763c1.439,17.408,6.793,29.268,6.793,29.268l-12.242,2.352c0,0,8.701,8.574,18.157,14.111
		c10.289,6.026,19.946,9.423,19.946,9.423s3.008-7.439,5.463-15.711c2.454-8.271,5.128-16.971,5.128-16.971l-11.55,2.222
		c0,0-7.094-16.438-7.899-29.138c-0.806-12.697,3.97-26.974,3.97-26.974l11.691-1.77c0,0-2.615-5.683-5.318-10.074
		C93.419,59.296,88.617,53.217,88.617,53.217z"/>
	<path fill="#F5F6FA" d="M336.008,303.305H64.713c-4.225,0-8.145-2.206-10.334-5.82c-2.191-3.614-2.338-8.109-0.385-11.858
		l63.785-143.776c2.082-3.997,6.215-6.503,10.721-6.503h143.721c4.506,0,8.639,2.506,10.721,6.503l63.785,143.776
		c1.953,3.749,1.807,8.244-0.385,11.858S340.232,303.305,336.008,303.305z M84.643,279.123h231.436l-51.189-119.595H135.83
		L84.643,279.123z"/>
	<path fill="#F5F6FA" d="M345.737,220.912c0,0,10.606,4.978,21.968,12.143c13.609,8.583,19.868,17.859,19.868,17.859l-9.739,0.747
		c0,0,10.979,12.105,12.26,31.332c1.521,22.835-11.276,36.905-11.276,36.905l9.636-2.535c0,0-7.811,9.65-20.363,18.26
		c-9.809,6.727-21.8,11.594-21.8,11.594s0.634-3.193,0.249-8.743s-0.687-9.92-0.687-9.92l11.732-3.081
		c0,0,12.376-20.201,11.221-39.692c-1.346-22.713-12.462-32.476-12.462-32.476l-11.895,0.912c0,0,1.533-10.35,1.517-16.202
		S345.737,220.912,345.737,220.912z"/>
	<path fill="#F5F6FA" d="M311.822,53.217c0,0,8.828,3.729,18.361,10.753c9.531,7.026,17.182,16.767,17.182,16.767l-12.399-1.88
		c0,0,5.132,10.353,3.692,27.763c-1.439,17.408-6.793,29.268-6.793,29.268l12.242,2.352c0,0-8.701,8.574-18.157,14.111
		c-10.289,6.026-19.946,9.423-19.946,9.423s-3.008-7.439-5.463-15.711c-2.454-8.271-5.128-16.971-5.128-16.971l11.55,2.222
		c0,0,7.094-16.438,7.899-29.138c0.806-12.697-3.97-26.974-3.97-26.974l-11.691-1.77c0,0,2.615-5.683,5.318-10.074
		C307.021,59.296,311.822,53.217,311.822,53.217z"/>
</g>
</svg>
