<?xml version="1.0" encoding="utf-8"?>
<!-- Generator: Adobe Illustrator 16.0.0, SVG Export Plug-In . SVG Version: 6.00 Build 0)  -->
<!DOCTYPE svg PUBLIC "-//W3C//DTD SVG 1.1//EN" "http://www.w3.org/Graphics/SVG/1.1/DTD/svg11.dtd">
<svg version="1.1" id="Layer_1" xmlns="http://www.w3.org/2000/svg" xmlns:xlink="http://www.w3.org/1999/xlink" x="0px" y="0px"
	 width="400px" height="400px" viewBox="0 0 400 400" enable-background="new 0 0 400 400" xml:space="preserve">
<path fill="#F5F6FA" d="M200,346.666c-81.002,0-146.667-65.664-146.667-146.666S118.998,53.333,200,53.333
	S346.667,118.998,346.667,200S281.002,346.666,200,346.666z M200,80c-66.274,0-120,53.726-120,120s53.726,120,120,120
	c66.273,0,120-53.726,120-120S266.273,80,200,80z"/>
<path fill="#F5F6FA" d="M218.666,264L152,210.666v-21.333L218.666,136l16,21.333L181.333,200l53.333,42.666L218.666,264z"/>
</svg>
