<?xml version="1.0" encoding="utf-8"?>
<!-- Generator: Adobe Illustrator 16.0.0, SVG Export Plug-In . SVG Version: 6.00 Build 0)  -->
<!DOCTYPE svg PUBLIC "-//W3C//DTD SVG 1.1//EN" "http://www.w3.org/Graphics/SVG/1.1/DTD/svg11.dtd">
<svg version="1.1" id="Layer_1" xmlns="http://www.w3.org/2000/svg" xmlns:xlink="http://www.w3.org/1999/xlink" x="0px" y="0px"
	 width="400px" height="400px" viewBox="0 0 400 400" enable-background="new 0 0 400 400" xml:space="preserve">
<g>
	<path fill="#8952A1" d="M243.436,201.027c-13.934,9.338-36.231,12.228-52.406,12.226c-16.152-0.009-38.623-2.914-52.683-12.349
		c0,1.4-0.101,1.095,0.097,2.195c0.599,3.307,2.682,4.299,5.188,6.316c5.716,4.625,12.422,7.146,19.466,8.834
		c10.796,2.595,35.52,3.038,46.537,1.678c8.084-0.98,15.918-2.924,23.16-6.793c3.826-2.035,7.26-3.592,9.512-7.439
		C243.474,203.697,243.773,202.391,243.436,201.027z"/>
	<path fill="#8952A1" d="M203.694,238.855c0.229,0.258,0.797,0.42,1.162,0.381c8.217-0.817,18.6-2.816,26.083-6.399
		c4.326-2.073,8.366-4.577,11.096-8.679c1.425-2.146,1.722-3.977,1.332-5.565c-13.481,9.167-32.734,12.19-48.453,12.688
		C198.698,233.581,201.315,235.807,203.694,238.855z"/>
	<path fill="#8952A1" d="M143.844,175.792c12.235,6.237,29.423,9.812,47.146,9.812c17.728,0,34.915-3.574,47.149-9.812
		c9.947-5.073,15.88-11.538,15.88-17.312s-5.933-12.241-15.88-17.312c-12.234-6.239-29.422-9.815-47.149-9.815
		c-17.723,0-34.91,3.576-47.146,9.815c-9.948,5.07-15.878,11.538-15.878,17.312S133.896,170.719,143.844,175.792z M190.885,142.576
		c17.962,0,32.535,7.035,32.535,15.718c0,8.684-14.573,15.722-32.535,15.722c-17.979,0-32.533-7.038-32.533-15.722
		C158.352,149.611,172.905,142.576,190.885,142.576z"/>
	<path fill="#8952A1" d="M190.885,163.813c11.716,0,21.733-2.946,21.733-5.519c0-2.575-10.018-5.528-21.733-5.528
		c-11.714,0-21.73,3.711-21.73,5.528C169.154,160.115,179.171,163.813,190.885,163.813z"/>
	<path fill="#8952A1" d="M155.182,198.279c18.19,6.344,50.336,6.433,68.739,1.012c5.795-1.71,11.233-4.277,15.69-8.508
		c1.805-1.709,3.301-3.546,3.865-6.273c-13.304,6.961-31.903,11.284-52.487,11.284c-20.617,0-39.236-4.337-52.552-11.323
		c0.327,2.055,1.268,3.302,2.445,4.688C144.692,193.68,149.742,196.375,155.182,198.279z"/>
	<path fill="#8952A1" d="M199.836,9.688c-104.935,0-190,85.065-190,190s85.065,190,190,190s190-85.065,190-190
		S304.771,9.688,199.836,9.688z M70.304,238.312c-0.766,0.181-1.531,0.268-2.285,0.268c-4.498,0-8.571-3.08-9.647-7.647
		c-2.517-10.677-3.792-21.698-3.792-32.761c0-78.439,63.814-142.255,142.254-142.255c35.279,0,68.379,12.694,94.124,35.522
		l-0.703-14.857c-0.259-5.474,3.968-10.12,9.441-10.379c5.469-0.264,10.12,3.969,10.379,9.441l1.982,41.913
		c0.205,4.338-2.435,8.305-6.515,9.791c-1.058,0.385-2.147,0.576-3.229,0.594c-0.012,0.001-0.021,0.004-0.033,0.004l-40.447,0.547
		c-0.045,0.001-0.091,0.001-0.137,0.001c-5.417,0-9.844-4.354-9.917-9.787c-0.074-5.479,4.307-9.98,9.786-10.054l18.538-0.251
		c-22.465-20.945-51.863-32.644-83.271-32.644c-67.498,0-122.412,54.914-122.412,122.413c0,9.531,1.098,19.022,3.263,28.208
		C78.941,231.713,75.637,237.055,70.304,238.312z M262.112,258.327c0,10.294,0,19.233,0,29.356c-23.498,0-24.411,0-47.9,0
		c-12.003,0-23.771-4.443-29.674-15.603c-0.452-0.845-0.927-1.229-1.915-1.333c-7.725-0.879-27.675-5.437-35.037-8.016
		c-8.307-2.898-16.087-6.752-22.309-13.16c-5.073-5.217-8.1-11.344-7.395-18.807c0.635-6.724,3.708-10.612,8.749-14.852
		c2.27-1.927,4.837-2.915,4.145-5.229c-0.073-0.221-0.116-0.738-0.305-1.073c-3.298-6.093-3.333-9.351-0.107-15.47
		c0.472-0.921,0.43-1.606-0.045-2.493c-2.258-4.13-2.967-7.036-1.78-11.636c0.201-0.797,0.01-1.727-0.432-2.392
		c-6.575-5.601-10.354-12.145-10.354-19.142c0-20.614,32.794-37.318,73.236-37.318c14.085,0,27.229,2.02,38.395,5.533
		c2.963,0.879,5.913,1.906,8.8,3.107c7.605,3.163,14.636,7.23,20.009,13.661c2.856,3.432,4.851,7.133,5.652,11.142
		c0.009,0.04,0.018,0.089,0.027,0.125c0.051,0.257,0.077,0.494,0.117,0.738c0.018,0.108,0.031,0.194,0.044,0.292
		c0.031,0.202,0.063,0.421,0.085,0.626c0.017,0.138,0.029,0.273,0.042,0.418c0.013,0.134,0.024,0.279,0.033,0.417
		s0.02,0.263,0.025,0.398c0.013,0.262,0.021,0.523,0.023,0.784c0,0.023,0,0.048,0,0.076c0,0.04-0.002,0.076-0.002,0.117
		c-0.007,1.731-0.242,3.518-0.703,5.365c-1.094,4.287-3.322,7.421-6.221,10.354c-0.986,1.087-2.098,2.136-3.286,3.16
		c-0.357,0.507-0.642,1.186-0.549,1.639c1.137,4.821,0.35,8.526-1.896,12.868c-0.284,0.516-0.248,1.422,0.023,1.956
		c3.19,6.212,3.238,9.5-0.068,15.665c-0.259,0.455-0.311,2.129-0.124,2.616c1.217,3.038,2.67,3.344,5.397,5.444
		c1.135,0.871,2.19,2.389,3.035,3.586c4.75,6.729,5.832,12.204,2.568,19.938c-2.308,5.428-6.26,9.512-10.95,12.92
		c-1.945,1.401-3.997,2.64-6.402,4.218C258.527,258.327,248.983,258.327,262.112,258.327z M196.834,342.216
		c-35.279,0-68.379-12.694-94.124-35.523l0.703,14.858c0.259,5.474-3.968,10.12-9.441,10.379c-5.454,0.264-10.12-3.968-10.379-9.441
		l-1.982-41.914c-0.003-0.063,0.001-0.114,0.001-0.172c-0.002-0.055-0.01-0.108-0.011-0.163c-0.074-5.479,4.307-9.98,9.786-10.054
		l40.447-0.547c0.045-0.001,0.091-0.001,0.137-0.001c5.417,0,9.844,4.354,9.917,9.787c0.074,5.479-4.307,9.98-9.786,10.054
		l-18.538,0.251c22.465,20.946,51.864,32.645,83.271,32.645c67.498,0,122.412-54.914,122.412-122.413
		c0-9.531-1.098-19.022-3.263-28.208c-1.258-5.334,2.047-10.676,7.38-11.933s10.676,2.046,11.933,7.38
		c2.517,10.677,3.792,21.698,3.792,32.761C339.088,278.4,275.273,342.216,196.834,342.216z"/>
	<path fill="#8952A1" d="M251.802,227.793c-2.204,3.96-5.178,7.031-8.691,9.578c-7.978,5.781-17.091,8.694-26.618,10.51
		c-1.862,0.34-3.744,0.635-5.581,0.936c0.575,2.559,1.062,3.398,1.646,5.697c0.497,1.965,1.474,2.657,3.175,2.391
		c7.286-1.195,14.405-3.029,21.14-6.096c5.312-2.402,10.229-5.353,13.974-9.967C254.627,236.172,255.031,232.221,251.802,227.793z"
		/>
	<path fill="#8952A1" d="M218.074,268.478c-6.962-0.001-12.445-1.64-14.918-7.886c-0.862-2.193-2.276-4.881-2.972-7.158
		c-4.22-13.854-26.275-20.672-39.715-25.287c-5.394-1.842-10.728-3.91-15.992-6.076c-2.062-0.847-3.906-2.233-5.929-3.402
		c-0.249,2.789-0.016,3.486,1.514,5.715c2.051,2.96,4.767,5.27,7.953,6.742c4.924,2.281,10.152,3.813,15.064,6.123
		c4.041,1.896,13.748,5.177,17.497,8.088c5.239,4.057,10.308,8.511,11.908,15.803c2.77,12.727,11.62,16.428,26.271,16.428
		c17.927,0,13.293-0.07,31.222-0.077c0.604,0,1.203,0,1.797,0c0-3.523,0-5.634,0-9.019c-0.795,0-1.473,0-2.153,0
		C231.59,268.477,236.105,268.49,218.074,268.478z"/>
	<path fill="#8952A1" d="M158.74,246.514c-1.353-0.434-2.699-0.895-4.028-1.357c-9.891-3.307-18.904-7.891-24.623-17.396
		c-1.95,2.991-2.671,4.594-1.688,7.963c1.154,3.973,3.814,6.898,7.014,9.328c9.676,7.332,33.347,13.258,45.258,15.212
		C180.005,253.955,164.498,248.416,158.74,246.514z"/>
</g>
</svg>
