<?xml version="1.0" encoding="utf-8"?>
<!-- Generator: Adobe Illustrator 16.0.0, SVG Export Plug-In . SVG Version: 6.00 Build 0)  -->
<!DOCTYPE svg PUBLIC "-//W3C//DTD SVG 1.1//EN" "http://www.w3.org/Graphics/SVG/1.1/DTD/svg11.dtd">
<svg version="1.1" id="Layer_1" xmlns="http://www.w3.org/2000/svg" xmlns:xlink="http://www.w3.org/1999/xlink" x="0px" y="0px"
	 width="400px" height="400px" viewBox="0 0 400 400" enable-background="new 0 0 400 400" xml:space="preserve">
<g>
	<path fill-rule="evenodd" clip-rule="evenodd" fill="#F5F6FA" d="M369.432,44.271c-5.305-5.229-8.133-8.017-13.32-13.364
		c-2.799-2.883-5.461-3.036-9.041-1.535c-21.654,9.079-41.99,23.406-60.217,32.182c-2.889,1.39-4.135,3.523-3.992,6.784
		c0.23,5.268,2.602,14.095,2.924,19.355c0.162,2.649-0.721,4.382-2.514,6.171c-43.258,43.157-87.126,87.041-130.337,130.242
		c-0.891,0.891-1.831,1.732-3.072,2.9c-2.263-2.328-4.331-4.539-6.494-6.658c-3.702-3.631-6.352-3.693-9.875-0.211
		c-4.751,4.7-93.716,93.962-97.109,97.355c-8.479,8.476-14.964,29.257,1.273,45.497c16.239,16.237,35.36,10.479,45.154,0.684
		c1.16-1.16,67.044-66.828,96.237-96.016c4.735-4.734,4.686-6.966-0.342-11.94c-1.802-1.783-3.729-3.436-5.671-5.213
		c0.81-0.959,1.145-1.42,1.546-1.822c44.035-44.037,88.732-88.745,132.832-132.718c0.93-0.926,2.643-1.459,4.023-1.475
		c5.617-0.058,15.906,2.107,21.533,2.349c3.289,0.137,5.375-1.209,6.75-4.058c8.848-18.325,23.238-40.313,31.262-60.061
		C372.332,49.396,372.033,46.839,369.432,44.271z"/>
	<path fill-rule="evenodd" clip-rule="evenodd" fill="#F5F6FA" d="M231.16,231.158l-14.191,14.195c-2.75,2.746-2.75,7.203,0,9.949
		l36.662,36.664c0,0,0.674,2.162,0.68,4.816c0.008,2.656,1.072,35.005,1.072,35.005s-1.426,5.006,4.695,11.128
		c6.121,6.121,22.881,22.901,22.881,22.901s4.74,5.018,10.068,5.018S333.373,375,333.373,375s4.82-0.54,5.326-3.516
		c0.502-2.98,1.234-4.09-2.424-7.746c-3.658-3.659-35.232-35.232-35.232-35.232s-8.768-9.242,4.727-22.736
		c13.494-13.496,22.736-4.728,22.736-4.728s31.574,31.575,35.232,35.232s4.768,2.926,7.746,2.423
		c2.977-0.506,3.516-5.324,3.516-5.324s-4.164-35.02-4.164-40.348c0-5.329-5.018-10.068-5.018-10.068s-16.781-16.758-22.902-22.879
		c-6.121-6.122-11.127-4.697-11.127-4.697s-32.35-1.064-35.004-1.071c-2.656-0.005-4.816-0.68-4.816-0.68l-36.666-36.663
		c-2.746-2.748-7.201-2.748-9.949,0L231.16,231.158z"/>
	<path fill-rule="evenodd" clip-rule="evenodd" fill="#F5F6FA" d="M168.841,168.84l-14.194,14.191c-2.747,2.75-7.203,2.75-9.949,0
		l-36.665-36.662c0,0-2.161-0.674-4.816-0.681c-2.654-0.007-35.005-1.069-35.005-1.069s-5.006,1.423-11.128-4.697
		c-6.12-6.121-22.901-22.881-22.901-22.881s-5.017-4.739-5.017-10.068c0-5.328-4.165-40.347-4.165-40.347s0.538-4.819,3.516-5.325
		c2.979-0.503,4.089-1.234,7.747,2.423c3.657,3.659,35.232,35.232,35.232,35.232s9.241,8.769,22.737-4.727
		c13.493-13.494,4.724-22.735,4.724-22.735S67.383,39.92,63.724,36.262c-3.656-3.658-2.925-4.768-2.422-7.746
		C61.808,25.537,66.627,25,66.627,25s35.018,4.165,40.347,4.165c5.328,0,10.068,5.016,10.068,5.016s16.759,16.782,22.881,22.902
		c6.12,6.121,4.695,11.127,4.695,11.127s1.064,32.351,1.07,35.005c0.007,2.654,0.681,4.816,0.681,4.816l36.663,36.666
		c2.749,2.746,2.749,7.201,0,9.948L168.841,168.84z"/>
</g>
</svg>
