<?xml version="1.0" encoding="utf-8"?>
<!-- Generator: Adobe Illustrator 16.0.0, SVG Export Plug-In . SVG Version: 6.00 Build 0)  -->
<!DOCTYPE svg PUBLIC "-//W3C//DTD SVG 1.1//EN" "http://www.w3.org/Graphics/SVG/1.1/DTD/svg11.dtd">
<svg version="1.1" id="Layer_1" xmlns="http://www.w3.org/2000/svg" xmlns:xlink="http://www.w3.org/1999/xlink" x="0px" y="0px"
	 width="400px" height="400px" viewBox="0 0 400 400" enable-background="new 0 0 400 400" xml:space="preserve">
<g>
	<path fill-rule="evenodd" clip-rule="evenodd" fill="#0097E6" d="M200,10C95.066,10,10,95.067,10,200c0,104.935,85.066,190,190,190
		s190-85.064,190-190C390,95.067,304.933,10,200,10z M200,368c-92.637,0-168-75.363-168-168c0-92.635,75.363-168,168-168
		c92.635,0,168,75.365,168,168C368,292.637,292.635,368,200,368z"/>
	<path fill="#0097E6" d="M272.844,108.046c-3.098,0-6.273,0.178-9.517,0.547c-24.626,1.541-45.927,21.766-62.899,57.029
		c-0.113-0.002-0.226-0.01-0.34-0.01c-0.077,0-0.153,0.006-0.23,0.006c-2.257-3.475-15.369-26.275-9.126-78.557
		c3.249-19.5-12.47-26.857-28.556-26.857c-6.877,0-13.821,1.344-19.379,3.66C99.503,80.876,73.386,110.826,68.746,143.3
		c-7.524,50.168,25.51,78.924,69.614,78.924c10.161,0,20.918-1.535,31.895-4.68c0.056,0.098,0.109,0.195,0.166,0.291
		c-1.814,3.611-17.298,31.971-63.009,47.631c-26.285,9.279-12.37,40.205,4.641,52.576c20.082,17.404,47.403,26.984,73.319,26.984
		c33.945,0,65.476-16.445,75.122-53.273c4.632-23.154-7.486-47.924-30.599-74.16c0.016-0.025,0.03-0.053,0.045-0.078
		c20.122,7.73,53.477,19.799,67.355,35.219c5.935,5.936,11.804,8.547,17.399,8.547c12.228,0,21.176-5.695,28.022-30.055
		C358.394,175.448,333.249,108.046,272.844,108.046z M200.114,187.466c6.981,0,12.639,5.659,12.639,12.639
		c0,6.979-5.657,12.639-12.639,12.639c-6.98,0-12.639-5.66-12.639-12.639C187.475,193.125,193.134,187.466,200.114,187.466z
		 M165.813,195.958c-0.444,0.1-0.888,0.205-1.328,0.334c-8.953,2.592-17.742,3.906-26.125,3.906
		c-17.014,0-31.016-5.379-39.426-15.145c-7.9-9.174-10.808-22.482-8.407-38.486c0.008-0.051,0.016-0.102,0.022-0.152
		c3.637-25.445,26.18-48.643,60.303-62.051c0.14-0.055,0.279-0.111,0.418-0.17c2.954-1.23,7.031-1.965,10.906-1.965
		c3.303,0,5.574,0.512,6.868,0.967c-0.011,0.078-0.024,0.16-0.038,0.246c-0.056,0.334-0.104,0.672-0.145,1.008
		c-5.899,49.4,3.76,76.818,9.863,88.572C171.74,178.533,166.937,186.675,165.813,195.958z M239.008,286.844
		c-3.218,11.721-9.612,20.775-19.014,26.922c-9.243,6.043-21.216,9.236-34.622,9.236c-21.271,0-43.286-8.076-58.894-21.604
		c-0.474-0.41-0.965-0.801-1.472-1.17c-5.344-3.885-9.059-10.439-9.977-14.09c23.024-7.963,43.092-20.252,58.06-35.563
		c7.113-7.277,11.707-13.801,14.431-18.256c3.896,1.523,8.132,2.369,12.568,2.369c4.679,0,9.137-0.934,13.206-2.619
		C232.859,254.254,241.507,272.678,239.008,286.844z M322.276,222.686c-2.4,10.291-7.075,13.963-9.159,15.631
		c-0.392-0.293,0.647-0.287,0.052-0.861c-16.702-18.104-48.317-30.18-71.465-39.022c-1.394-0.533-2.741-1.047-4.032-1.543
		c-1.09-0.42-2.198-0.727-3.312-0.965c-1.137-9.311-5.974-17.473-13.002-22.975c6.989-14.064,14.527-24.877,22.431-32.162
		c6.973-6.428,13.814-9.768,20.914-10.213c0.372-0.023,0.743-0.057,1.112-0.098c2.373-0.27,4.738-0.406,7.029-0.406
		c24.599,0,35.774,16.27,41.994,25.633C327.384,174.592,326.957,202.615,322.276,222.686z"/>
</g>
</svg>
