<?xml version="1.0" encoding="utf-8"?>
<!-- Generator: Adobe Illustrator 16.0.0, SVG Export Plug-In . SVG Version: 6.00 Build 0)  -->
<!DOCTYPE svg PUBLIC "-//W3C//DTD SVG 1.1//EN" "http://www.w3.org/Graphics/SVG/1.1/DTD/svg11.dtd">
<svg version="1.1" id="Layer_1" xmlns="http://www.w3.org/2000/svg" xmlns:xlink="http://www.w3.org/1999/xlink" x="0px" y="0px"
	 width="400px" height="400px" viewBox="0 0 400 400" enable-background="new 0 0 400 400" xml:space="preserve">
<path fill="#F5F6FA" d="M353.175,374.166H46.824C26.519,374.166,10,357.66,10,337.377V150.228c0-10.456,4.372-19.908,11.382-26.612
	c1.358-2.519,2.446-8.417,2.301-13.192l-0.008-0.415V60.952c0-20.285,16.52-36.786,36.823-36.786h94.899
	c25.116,0,35.988,16.117,43.927,27.886c7.207,10.684,11.097,15.818,20.669,15.818h133.182C373.48,67.87,390,84.373,390,104.656
	v232.721C390,357.66,373.48,374.166,353.175,374.166z M36.661,142.777c-1.523,2.088-2.426,4.664-2.426,7.45v187.149
	c0,6.935,5.647,12.576,12.589,12.576h306.351c6.941,0,12.59-5.644,12.59-12.576v-232.72c0-6.934-5.647-12.574-12.59-12.574H211.729
	c-8.278,0-15.023,4.378-25.773,16.729c-7.547,8.673-27.207,28.844-46.706,28.844l-92.562-0.004c-2.799,0-5.386,0.938-7.468,2.52
	C38.438,141.091,37.587,141.964,36.661,142.777z M47.896,113.44l91.352,0.002c6.12,0,18.069-8.628,28.416-20.518
	c5.633-6.471,11.724-12.702,18.828-17.333c-2.789-3.375-5.138-6.856-7.265-10.009c-7.627-11.307-12.151-17.207-23.83-17.207H60.498
	c-6.939,0-12.588,5.643-12.588,12.576V109.8C47.936,110.592,47.952,111.853,47.896,113.44z"/>
</svg>
