<?xml version="1.0" encoding="utf-8"?>
<!-- Generator: Adobe Illustrator 16.0.0, SVG Export Plug-In . SVG Version: 6.00 Build 0)  -->
<!DOCTYPE svg PUBLIC "-//W3C//DTD SVG 1.1//EN" "http://www.w3.org/Graphics/SVG/1.1/DTD/svg11.dtd">
<svg version="1.1" id="Layer_1" xmlns="http://www.w3.org/2000/svg" xmlns:xlink="http://www.w3.org/1999/xlink" x="0px" y="0px"
	 width="400px" height="400px" viewBox="0 0 400 400" enable-background="new 0 0 400 400" xml:space="preserve">
<g>
	<path fill="#F5F6FA" d="M380.434,292.968H20.285c-3.383,0-6.531-1.722-8.356-4.569c-1.825-2.847-2.075-6.428-0.662-9.5
		L95.944,94.672c1.618-3.522,5.142-5.779,9.019-5.779h190.793c3.877,0,7.398,2.257,9.02,5.779l84.678,184.227
		c1.413,3.072,1.162,6.653-0.662,9.5C386.965,291.246,383.816,292.968,380.434,292.968z M35.771,273.118h329.176l-75.551-164.376
		H111.323L35.771,273.118z"/>
	<path fill="#F5F6FA" d="M214.568,175.206h-2.063v-8.917c0-1.266-1.025-2.292-2.292-2.292h-19.711c-1.266,0-2.292,1.026-2.292,2.292
		v8.917h-2.063c-1.266,0-2.292,1.026-2.292,2.292v9.644c0,1.266,1.026,2.292,2.292,2.292h2.611l9.558,14.698
		c0,0,0.652,1.461,2.041,1.461s2.041-1.461,2.041-1.461l9.558-14.698h2.612c1.266,0,2.291-1.026,2.291-2.292v-9.644
		C216.861,176.232,215.835,175.206,214.568,175.206z M207.465,169.039v6.167h-14.211v-6.167H207.465z M200.359,198.021l-5.584-8.588
		h11.168L200.359,198.021z M211.818,184.392h-20.321h-2.598v-4.144h22.919V184.392L211.818,184.392z"/>
	<path fill="#F5F6FA" d="M378.359,312.002h-356c-1.565,0-2.835-1.27-2.835-2.835s1.27-2.835,2.835-2.835h356
		c1.564,0,2.834,1.27,2.834,2.835S379.925,312.002,378.359,312.002z"/>
	<path fill="#F5F6FA" d="M200.274,137.118c-0.004,0-0.008,0-0.012,0c-0.853-0.004-1.657-0.391-2.192-1.053l-8.766-10.842
		c-0.984-1.218-0.796-3.002,0.422-3.986c1.218-0.985,3.003-0.795,3.986,0.422l6.581,8.14l12.604-15.318
		c0.994-1.209,2.781-1.383,3.99-0.388c1.209,0.994,1.383,2.78,0.387,3.989l-14.813,18.002
		C201.925,136.739,201.122,137.118,200.274,137.118z"/>
	<path fill="#F5F6FA" d="M200.274,266.402c-0.004,0-0.008,0-0.012,0c-0.853-0.004-1.657-0.391-2.192-1.053l-8.766-10.842
		c-0.984-1.218-0.796-3.002,0.422-3.986c1.218-0.985,3.003-0.795,3.986,0.422l6.581,8.141l12.604-15.318
		c0.994-1.209,2.781-1.384,3.99-0.388c1.209,0.994,1.383,2.78,0.387,3.989l-14.813,18.002
		C201.925,266.023,201.122,266.402,200.274,266.402z"/>
	<path fill="#F5F6FA" d="M93.703,201.619c-0.004,0-0.008,0-0.012,0c-0.853-0.004-1.657-0.391-2.192-1.053l-8.766-10.842
		c-0.984-1.218-0.796-3.002,0.422-3.986c1.218-0.986,3.003-0.795,3.986,0.422l6.581,8.14l12.604-15.318
		c0.993-1.209,2.781-1.384,3.989-0.388c1.209,0.994,1.383,2.78,0.388,3.989L95.89,200.585
		C95.354,201.24,94.551,201.619,93.703,201.619z"/>
	<path fill="#F5F6FA" d="M123.592,137.118c-0.004,0-0.008,0-0.012,0c-0.853-0.004-1.657-0.391-2.192-1.053l-8.766-10.842
		c-0.984-1.218-0.796-3.002,0.422-3.986c1.218-0.985,3.003-0.795,3.986,0.422l6.581,8.14l12.604-15.318
		c0.993-1.209,2.781-1.383,3.989-0.388c1.209,0.994,1.383,2.78,0.388,3.989l-14.813,18.002
		C125.242,136.739,124.439,137.118,123.592,137.118z"/>
	<path fill="#F5F6FA" d="M62.62,266.402c-0.004,0-0.008,0-0.012,0c-0.853-0.004-1.657-0.391-2.192-1.053l-8.766-10.842
		c-0.984-1.218-0.796-3.002,0.422-3.986c1.217-0.985,3.004-0.795,3.986,0.422l6.581,8.141l12.604-15.318
		c0.993-1.209,2.781-1.384,3.989-0.388c1.209,0.994,1.383,2.78,0.388,3.989l-14.813,18.002
		C64.271,266.023,63.468,266.402,62.62,266.402z"/>
	<path fill="#F5F6FA" d="M297.631,201.619c-0.004,0-0.008,0-0.012,0c-0.854-0.004-1.657-0.391-2.191-1.053l-8.767-10.842
		c-0.983-1.218-0.796-3.002,0.422-3.986c1.218-0.986,3.004-0.795,3.985,0.422l6.582,8.14l12.604-15.318
		c0.992-1.209,2.78-1.384,3.989-0.388c1.209,0.994,1.383,2.78,0.388,3.989l-14.813,18.002
		C299.281,201.24,298.479,201.619,297.631,201.619z"/>
	<path fill="#F5F6FA" d="M267.208,137.118c-0.004,0-0.008,0-0.013,0c-0.852-0.004-1.656-0.391-2.191-1.053l-8.766-10.842
		c-0.984-1.218-0.797-3.002,0.422-3.986c1.217-0.985,3.003-0.795,3.986,0.422l6.58,8.14l12.604-15.318
		c0.993-1.209,2.78-1.383,3.989-0.388c1.209,0.994,1.383,2.78,0.388,3.989l-14.813,18.002
		C268.857,136.739,268.057,137.118,267.208,137.118z"/>
	<path fill="#F5F6FA" d="M328.572,266.402c-0.004,0-0.008,0-0.012,0c-0.854-0.004-1.658-0.391-2.192-1.053l-8.767-10.842
		c-0.983-1.218-0.795-3.002,0.422-3.986c1.219-0.985,3.004-0.795,3.986,0.422l6.581,8.141l12.604-15.318
		c0.992-1.209,2.779-1.384,3.988-0.388c1.209,0.994,1.383,2.78,0.389,3.989l-14.813,18.002
		C330.223,266.023,329.42,266.402,328.572,266.402z"/>
</g>
</svg>
