<?xml version="1.0" encoding="utf-8"?>
<!-- Generator: Adobe Illustrator 16.0.0, SVG Export Plug-In . SVG Version: 6.00 Build 0)  -->
<!DOCTYPE svg PUBLIC "-//W3C//DTD SVG 1.1//EN" "http://www.w3.org/Graphics/SVG/1.1/DTD/svg11.dtd">
<svg version="1.1" id="Layer_1" xmlns="http://www.w3.org/2000/svg" xmlns:xlink="http://www.w3.org/1999/xlink" x="0px" y="0px"
	 width="400px" height="400px" viewBox="0 0 400 400" enable-background="new 0 0 400 400" xml:space="preserve">
<g>
	<path fill="#5BBA47" d="M199.584,9.531c-104.934,0-190,85.066-190,190c0,104.936,85.066,190,190,190s190-85.064,190-190
		C389.584,94.598,304.518,9.531,199.584,9.531z M223.945,41.36l-24.361,37.47l-24.363-37.47H223.945z M199.584,367.531
		c-92.637,0-168-75.363-168-168c0-72.774,46.517-134.881,111.377-158.171h6.018l41.699,64.131c0,0,2.848,6.374,8.906,6.374
		c6.057,0,8.906-6.374,8.906-6.374l41.697-64.131h6.019c64.86,23.29,111.378,85.396,111.378,158.171
		C367.584,292.168,292.219,367.531,199.584,367.531z"/>
	<path fill="#5BBA47" d="M124.48,232.404h156.229c13.822,0,25.067-14.502,25.067-28.324c0-16.657-13.153-25.173-25.258-25.173
		H124.29c-3.061,0-5.551-2.49-5.551-5.551s2.49-5.551,5.551-5.551l57.958-0.003c16.902,0,29.17-11.889,29.17-28.27v-5.057
		c0-6.082-4.931-11.013-11.013-11.013s-11.013,4.931-11.013,11.013v5.057c0,4.144-2.403,6.244-7.146,6.244l-57.957,0.003
		c-15.205,0-27.576,12.371-27.576,27.576s12.371,27.576,27.576,27.576h156.229c1.7,0,8.25,0.859,8.25,7.254
		c0,4.444-3.615,7.21-8.06,7.21H124.48c-15.579,0-23.843,12.294-23.843,23.51c0,11.122,10.609,22.518,23.65,22.518h156.229
		c4.847,0,7.83,3.892,7.83,7.069c0,3.964-1.631,8.629-7.638,8.629H125.472c-9.774,0-15.421,8.124-15.421,17.262
		c0,10.995,8.249,16.85,16.283,16.85h156.229c1.879,0,3.401-1.522,3.401-3.401s-1.522-3.401-3.401-3.401H126.334
		c-1.751,0-8.206-1.74-8.206-8.064c0-4.586,3.524-7.906,7.344-7.906h155.237c12.259,0,19.967-10.313,19.967-20.675
		c0-10.67-7.398-20.535-20.159-20.535H124.288c-5.226,0-8.693-3.858-8.344-7.777C116.304,235.449,118.043,232.404,124.48,232.404z"
		/>
</g>
</svg>
