<?xml version="1.0" encoding="utf-8"?>
<!-- Generator: Adobe Illustrator 16.0.0, SVG Export Plug-In . SVG Version: 6.00 Build 0)  -->
<!DOCTYPE svg PUBLIC "-//W3C//DTD SVG 1.1//EN" "http://www.w3.org/Graphics/SVG/1.1/DTD/svg11.dtd">
<svg version="1.1" id="Layer_1" xmlns="http://www.w3.org/2000/svg" xmlns:xlink="http://www.w3.org/1999/xlink" x="0px" y="0px"
	 width="400px" height="400px" viewBox="0 0 400 400" enable-background="new 0 0 400 400" xml:space="preserve">
<g>
	<path fill="#E1B12C" d="M200,10C95.066,10,10,95.067,10,200c0,104.935,85.066,190,190,190s190-85.064,190-190
		C390,95.067,304.933,10,200,10z M200,368c-92.637,0-168-75.363-168-168c0-92.636,75.363-168,168-168c92.635,0,168,75.364,168,168
		C368,292.637,292.635,368,200,368z"/>
	<path fill="#E1B12C" d="M329.576,237.934l-51.653-22.141c0.111-4.297-0.268-8.707-1.193-13.1
		c-1.579-7.505-5.891-13.998-10.458-20.875c-5.691-8.574-11.576-17.44-10.939-27.435c1.228-19.143,10.416-38.081,10.795-38.855
		c2.724-5.402,0.547-12.025-4.849-14.761c-1.53-0.778-3.247-1.189-4.966-1.189c-4.171,0-7.934,2.31-9.827,6.041
		c-1.181,2.353-11.585,23.667-13.104,47.359c-1.113,17.396,7.582,30.487,14.57,41.01c2.816,4.232,5.717,8.59,6.874,11.905
		l-30.059-12.884c-4.378-1.878-9.667-2.64-14.238-2.902c-1.604-2.759-3.413-5.489-5.272-8.288
		c-5.954-8.97-11.578-17.442-10.939-27.436c1.249-19.492,10.702-38.667,10.793-38.851c2.727-5.407,0.549-12.032-4.847-14.765
		c-1.53-0.778-3.247-1.189-4.966-1.189c-4.172,0-7.936,2.312-9.828,6.046c-1.181,2.354-11.584,23.677-13.104,47.354
		c-1.059,16.544,6.754,29.194,13.532,39.445c-1.314,0.318-2.607,0.654-3.843,1.028l-27.569,8.32
		c-1.733-7.13-5.877-13.375-10.26-19.968c-5.946-8.965-11.563-17.433-10.921-27.422c1.241-19.483,10.698-38.666,10.788-38.847
		c2.73-5.407,0.554-12.033-4.843-14.766c-1.527-0.779-3.245-1.191-4.969-1.191c-4.164,0-7.927,2.308-9.829,6.043
		c-1.183,2.36-11.596,23.736-13.104,47.357c-1.113,17.404,7.604,30.521,14.626,41.086c3.192,4.816,6.492,9.797,7.2,13.163
		c0.064,0.307,0.111,0.617,0.168,0.926L77.86,224.895c-15.587,4.709-19.217,12.076-19.518,17.428
		c-0.126,2.24,0.223,9.879,9.98,14.064l104.813,44.932c5.823,2.492,13.255,3.016,18.464,3.016c8.126,0,16.965-1.262,24.249-3.461
		l104.185-31.451c15.593-4.703,19.223-12.068,19.523-17.42C339.681,249.762,339.333,242.123,329.576,237.934z M210.017,281.549
		c-5.48,1.65-12.193,2.6-18.418,2.6c-5.358,0-8.945-0.719-10.513-1.389l-92.996-39.867l40.781-12.307
		c-0.591,0.639-1.224,1.199-1.903,1.654c-2.443,1.639-4.1,4.129-4.661,7.006c-0.573,2.883,0.015,5.816,1.651,8.252
		c2.043,3.051,5.461,4.873,9.143,4.873c2.206,0,4.328-0.65,6.122-1.867c8.563-5.744,14.246-16.064,16.063-27.889l32.605-9.84
		c2.144-0.648,4.479-1.184,6.899-1.6c0.868,9.072-1.801,17.705-6.808,21.063c-2.438,1.633-4.096,4.123-4.671,7.021
		c-0.562,2.885,0.031,5.813,1.662,8.236c2.042,3.053,5.458,4.875,9.139,4.875c2.203,0,4.325-0.648,6.12-1.867
		c11.157-7.475,17.43-22.705,16.629-38.916l36.374,15.59c-1.114,2.166-2.536,3.922-4.235,5.063
		c-5.034,3.373-6.384,10.219-3.011,15.256c2.042,3.053,5.459,4.875,9.143,4.875c2.201,0,4.322-0.648,6.119-1.867
		c5.16-3.461,9.27-8.586,12.124-14.693l36.427,15.615L210.017,281.549z"/>
</g>
</svg>
