<?xml version="1.0" encoding="utf-8"?>
<!-- Generator: Adobe Illustrator 16.0.0, SVG Export Plug-In . SVG Version: 6.00 Build 0)  -->
<!DOCTYPE svg PUBLIC "-//W3C//DTD SVG 1.1//EN" "http://www.w3.org/Graphics/SVG/1.1/DTD/svg11.dtd">
<svg version="1.1" id="Layer_1" xmlns="http://www.w3.org/2000/svg" xmlns:xlink="http://www.w3.org/1999/xlink" x="0px" y="0px"
	 width="380px" height="48px" viewBox="10.5 -1 380 48" enable-background="new 10.5 -1 380 48" xml:space="preserve">
<g>
	<path fill="#F5F6FA" d="M44.991,32.71c0,6.815-4.524,12.839-15.756,12.839H14.632c-1.569,0-3.132-1.534-3.132-2.918
		c0-2.038,1.563-3.105,2.969-3.105H26.9c8.783,0,11.564-3.397,11.564-6.815c0-3.235-3.831-6.48-10.435-6.15h-1.476
		c-9.661,0.628-14.517-6.337-14.517-13.148c0-6.493,3.559-12.41,14.863-12.41h14.084c1.823,0,3.115,0.898,3.115,2.692
		c0,2.268-1.119,3.225-2.933,3.225H29.234c-8.697,0-10.419,3.248-10.419,6.493c0,3.241,1.213,6.647,6.593,7.153
		c0.795,0.166,3.826,0.166,3.826,0.166C40.825,20.729,44.991,26.56,44.991,32.71z"/>
	<path fill="#F5F6FA" d="M79.877,1H50.141c-1.731,0-2.97,1.052-2.97,2.84c0,1.807,1.238,3.076,2.97,3.076h11.651v36.761
		c0,1.633,1.131,2.822,3.128,2.822c1.831,0,3.314-1.189,3.314-2.822V6.918h11.643c1.483,0,3.126-1.269,3.126-3.077
		C83.003,2.052,81.358,1,79.877,1z"/>
	<path fill="#F5F6FA" d="M118.584,3.521c0-1.622-1.202-2.678-2.947-2.678H96.859c-6.873,0-11.563,3.81-11.563,10.795v22.959
		c0,6.98,4.691,11.11,11.563,11.11h18.777c1.745,0,2.947-1.225,2.947-2.764c0-2.03-1.202-3.239-2.947-3.239H98.687
		c-4.53,0-6.784-1.709-6.784-6.475V13.411c0-5.174,2.254-6.82,6.784-6.82h16.781C117.21,6.753,118.584,5.46,118.584,3.521z"/>
	<path fill="#F5F6FA" d="M97.022,18.938c-1.465,0-2.679,1.12-2.679,3.076c0,1.622,1.214,2.763,2.679,2.763h17.407
		c1.824,0,3.131-1.141,3.131-2.763c0-1.956-1.503-3.076-3.131-3.076H97.022z"/>
	<path fill="#F5F6FA" d="M153.833,39.878h-17.915c-4.512,0-6.96-1.713-6.96-6.648V3.189c0-1.623-1.214-2.667-3.12-2.667
		c-1.747,0-3.307,1.045-3.307,2.667v31.568c0,6.979,4.693,11.115,11.655,11.115l19.646-0.165c1.477,0,2.964-1.225,2.964-2.764
		C156.797,40.757,155.309,39.704,153.833,39.878z"/>
	<path fill="#F5F6FA" d="M189.089,39.878h-17.917c-4.543,0-6.971-1.713-6.971-6.648V3.189c0-1.623-1.212-2.667-3.13-2.667
		c-1.737,0-3.305,1.045-3.305,2.667v31.568c0,6.979,4.701,11.115,11.662,11.115l19.661-0.165c1.468,0,2.951-1.225,2.951-2.764
		C192.04,40.757,190.557,39.704,189.089,39.878z"/>
	<path fill="#F5F6FA" d="M212.033,0.843c-13.396,0-16.699,8.516-16.699,18.742v23.358c0,1.539,0.858,3.096,3.305,3.096
		c2.267,0,3.646-1.557,3.646-3.096V20.391c0-8.27,1.313-13.638,9.748-13.638c9.492,0,10.609,5.191,10.609,13.469v1.296h-15.58
		c-1.641,0-2.523,1.153-2.523,2.682c0,1.862,0.883,2.986,2.523,2.986h15.58v16.261c0,1.199,1.193,2.591,3.221,2.591
		c1.73,0,3.295-1.39,3.295-2.753V18.118C229.158,9.192,226.021,0.843,212.033,0.843z"/>
	<path fill="#F5F6FA" d="M265.877,1c-4.867,0-7.838,1.71-10.438,5.284C252.91,2.711,250.138,1,245.254,1
		c-8.867,0-12.703,6.081-12.51,14.361v27.742c0,1.545,1.564,2.77,3.291,2.77c1.91,0,3.322-1.225,3.322-2.77V15.53
		c0-4.869,0.775-8.449,6.082-8.449c5.047,0,7.137,3.823,7.137,9.73v26.474c0,1.515,1.023,2.753,2.865,2.753
		c2.081,0,3.125-1.238,3.125-2.753V16.811c0.164-6.15,2.178-9.728,7.127-9.728c5.131,0,6.09,3.99,6.09,8.755v27.611
		c0,1.54,1.393,2.732,3.471,2.732c1.742,0,3.143-1.194,3.143-2.732V15.69C278.396,7.501,274.646,1,265.877,1z"/>
	<path fill="#F5F6FA" d="M299.276,1c-13.38,0-17.913,9.904-17.913,22.471c0,12.34,4.535,22.401,17.913,22.401
		c13.392,0,17.927-10.062,17.927-22.401C317.203,10.904,312.668,1,299.276,1z M299.276,39.878c-9.903,0-11.296-7.313-11.296-16.406
		c0-9.245,3.145-16.718,11.296-16.718c8.276,0,11.402,7.474,11.402,16.718C310.679,32.564,309.192,39.878,299.276,39.878z"/>
	<path fill="#F5F6FA" d="M353.131-0.214c-1.736-0.638-3.986,0.173-4.527,2.437l-12.421,33.749l-12.17-33.749
		c-1.233-2.118-2.794-3.075-4.712-2.606c-2.074,1.056-2.783,2.774-2.074,4.794l14.26,37.326c0.684,2.912,2.344,4.445,4.696,4.445
		c2.156,0,3.982-1.533,4.948-4.445l14.253-37.469C355.584,2.223,355.049,0.522,353.131-0.214z"/>
	<path fill="#F5F6FA" d="M367.946,18.938c-1.486,0-2.697,1.12-2.697,3.076c0,1.622,1.209,2.763,2.697,2.763h17.388
		c1.817,0,3.119-1.141,3.119-2.763c0-1.956-1.463-3.076-3.119-3.076H367.946z"/>
	<path fill="#F5F6FA" d="M386.543,39.704h-16.955c-4.51,0-6.79-1.708-6.79-6.475V13.411c0-5.174,2.28-6.82,6.79-6.82h16.782
		c1.728,0.163,3.13-1.131,3.13-3.069c0-1.622-1.213-2.678-2.957-2.678h-18.764c-6.891,0-11.588,3.81-11.588,10.795v22.959
		c0,6.98,4.699,11.11,11.588,11.11h18.764c1.744,0,2.957-1.225,2.957-2.764C389.5,40.912,388.287,39.704,386.543,39.704z"/>
</g>
</svg>
