<?xml version="1.0" encoding="utf-8"?>
<!-- Generator: Adobe Illustrator 16.0.0, SVG Export Plug-In . SVG Version: 6.00 Build 0)  -->
<!DOCTYPE svg PUBLIC "-//W3C//DTD SVG 1.1//EN" "http://www.w3.org/Graphics/SVG/1.1/DTD/svg11.dtd">
<svg version="1.1" id="Layer_1" xmlns="http://www.w3.org/2000/svg" xmlns:xlink="http://www.w3.org/1999/xlink" x="0px" y="0px"
	 width="400px" height="400px" viewBox="0 0 400 400" enable-background="new 0 0 400 400" xml:space="preserve">
<g>
	<path fill="#F5F6FA" d="M144.382,199.999c0-7.054-5.719-12.771-12.771-12.771H43.49l29.935-30.093
		c4.975-5.001,4.953-13.088-0.047-18.062c-5.004-4.974-13.088-4.955-18.063,0.048L3.746,190.963c-0.003,0.003-0.007,0.007-0.01,0.01
		l-0.019,0.019c-0.055,0.055-0.101,0.115-0.154,0.171c-0.234,0.245-0.465,0.493-0.679,0.755c-0.121,0.147-0.227,0.303-0.34,0.454
		c-0.135,0.181-0.274,0.358-0.4,0.546c-0.122,0.183-0.229,0.372-0.34,0.56c-0.101,0.169-0.207,0.334-0.299,0.509
		c-0.105,0.196-0.195,0.398-0.289,0.599c-0.083,0.176-0.17,0.349-0.245,0.529c-0.084,0.202-0.152,0.408-0.225,0.613
		c-0.066,0.187-0.138,0.371-0.196,0.562c-0.065,0.213-0.113,0.43-0.166,0.646c-0.046,0.187-0.099,0.372-0.137,0.562
		c-0.052,0.261-0.084,0.525-0.12,0.788c-0.02,0.149-0.049,0.294-0.064,0.444c-0.083,0.843-0.083,1.693,0,2.536
		c0.015,0.15,0.044,0.296,0.064,0.444c0.036,0.264,0.068,0.527,0.12,0.788c0.038,0.19,0.091,0.375,0.137,0.563
		c0.053,0.216,0.101,0.433,0.166,0.646c0.058,0.19,0.129,0.375,0.196,0.562c0.073,0.205,0.141,0.411,0.225,0.613
		c0.074,0.181,0.162,0.354,0.245,0.529c0.094,0.2,0.184,0.402,0.289,0.599c0.093,0.174,0.198,0.34,0.299,0.509
		c0.111,0.188,0.218,0.377,0.34,0.56c0.125,0.188,0.265,0.365,0.4,0.546c0.113,0.152,0.219,0.308,0.34,0.455
		c0.214,0.262,0.445,0.511,0.679,0.755c0.053,0.056,0.099,0.116,0.154,0.171l0.019,0.019c0.003,0.003,0.006,0.007,0.01,0.01
		l51.569,51.845c2.496,2.509,5.775,3.765,9.055,3.765c3.256,0,6.516-1.239,9.008-3.717c5-4.975,5.021-13.061,0.047-18.062
		L43.49,212.771h88.121C138.663,212.771,144.382,207.053,144.382,199.999z"/>
	<path fill="#F5F6FA" d="M397.115,208.082c0.124-0.151,0.232-0.311,0.349-0.466c0.133-0.179,0.27-0.353,0.393-0.538
		c0.119-0.178,0.224-0.363,0.332-0.546c0.104-0.175,0.213-0.346,0.31-0.525c0.098-0.185,0.182-0.374,0.271-0.562
		c0.09-0.189,0.184-0.377,0.264-0.571c0.075-0.181,0.135-0.365,0.201-0.548c0.075-0.21,0.154-0.416,0.22-0.631
		c0.055-0.182,0.095-0.366,0.141-0.55c0.057-0.219,0.117-0.437,0.161-0.659c0.041-0.207,0.064-0.416,0.095-0.624
		c0.03-0.203,0.068-0.403,0.088-0.61c0.035-0.36,0.05-0.723,0.055-1.085c0.001-0.057,0.009-0.111,0.009-0.168
		s-0.008-0.111-0.009-0.168c-0.005-0.362-0.02-0.724-0.055-1.085c-0.02-0.207-0.058-0.407-0.088-0.611
		c-0.03-0.208-0.054-0.417-0.095-0.623c-0.044-0.224-0.104-0.44-0.161-0.66c-0.046-0.184-0.086-0.369-0.141-0.55
		c-0.065-0.214-0.145-0.421-0.22-0.63c-0.066-0.183-0.126-0.368-0.201-0.548c-0.08-0.195-0.174-0.382-0.264-0.571
		c-0.089-0.188-0.173-0.377-0.271-0.562c-0.097-0.18-0.205-0.351-0.31-0.525c-0.108-0.183-0.213-0.368-0.332-0.546
		c-0.123-0.185-0.26-0.359-0.393-0.538c-0.116-0.155-0.225-0.314-0.349-0.465c-0.195-0.238-0.405-0.462-0.617-0.686
		c-0.073-0.078-0.138-0.162-0.214-0.238l-51.598-51.871c-4.975-5.001-13.063-5.023-18.063-0.048c-5,4.974-5.021,13.061-0.049,18.062
		l29.935,30.093h-88.12c-7.053,0-12.771,5.718-12.771,12.771s5.719,12.771,12.771,12.771h88.12l-29.935,30.095
		c-4.973,5.001-4.951,13.087,0.049,18.062c2.492,2.479,5.748,3.717,9.006,3.717c3.281,0,6.561-1.256,9.057-3.765l51.598-51.873
		c0.076-0.076,0.141-0.16,0.214-0.238C396.71,208.544,396.92,208.32,397.115,208.082z"/>
	<path fill="#F5F6FA" d="M148.128,77.141c3.258,0,6.516-1.238,9.008-3.717l30.094-29.935v88.12c0,7.055,5.719,12.771,12.771,12.771
		c7.055,0,12.771-5.717,12.771-12.771V43.49l30.092,29.934c5.002,4.974,13.086,4.953,18.063-0.047
		c4.975-5.001,4.953-13.088-0.047-18.063L209.009,3.717c-0.085-0.084-0.177-0.155-0.263-0.237c-0.216-0.203-0.431-0.405-0.66-0.593
		c-0.157-0.129-0.323-0.243-0.486-0.364c-0.171-0.127-0.338-0.259-0.516-0.378c-0.186-0.124-0.378-0.232-0.568-0.345
		c-0.167-0.1-0.33-0.204-0.502-0.296c-0.193-0.104-0.393-0.191-0.591-0.284c-0.18-0.084-0.356-0.174-0.54-0.25
		c-0.193-0.08-0.39-0.145-0.586-0.214c-0.197-0.07-0.392-0.146-0.593-0.207c-0.196-0.06-0.396-0.104-0.595-0.153
		c-0.205-0.051-0.406-0.109-0.615-0.15c-0.227-0.045-0.455-0.072-0.684-0.104c-0.184-0.026-0.365-0.061-0.551-0.079
		c-0.41-0.04-0.821-0.062-1.233-0.062c-0.009,0-0.017-0.001-0.026-0.001c-0.02,0-0.039,0.003-0.059,0.003
		c-0.399,0.002-0.798,0.021-1.196,0.061c-0.2,0.02-0.395,0.057-0.593,0.085c-0.213,0.031-0.427,0.056-0.639,0.098
		c-0.224,0.044-0.441,0.105-0.66,0.161c-0.183,0.046-0.367,0.086-0.548,0.141c-0.217,0.065-0.427,0.146-0.639,0.223
		c-0.18,0.065-0.361,0.124-0.538,0.197c-0.201,0.083-0.395,0.18-0.591,0.273c-0.181,0.085-0.363,0.166-0.54,0.26
		c-0.191,0.102-0.374,0.217-0.559,0.329c-0.171,0.103-0.345,0.199-0.512,0.311c-0.202,0.135-0.394,0.284-0.587,0.43
		c-0.139,0.104-0.281,0.201-0.417,0.311c-0.272,0.223-0.53,0.46-0.783,0.705c-0.047,0.045-0.099,0.084-0.146,0.131l-0.016,0.016
		c-0.005,0.005-0.01,0.01-0.015,0.015l-51.842,51.566c-5,4.975-5.021,13.061-0.049,18.062
		C141.569,75.886,144.849,77.141,148.128,77.141z"/>
	<path fill="#F5F6FA" d="M242.864,326.575l-30.092,29.935v-88.12c0-7.054-5.717-12.771-12.771-12.771
		c-7.053,0-12.771,5.718-12.771,12.771v88.121l-30.094-29.936c-5.002-4.974-13.088-4.953-18.063,0.048
		c-4.973,5.002-4.951,13.088,0.049,18.063l51.842,51.566c0.005,0.005,0.01,0.01,0.015,0.015l0.016,0.017
		c0.048,0.048,0.101,0.088,0.15,0.135c0.251,0.242,0.507,0.479,0.777,0.699c0.142,0.116,0.292,0.218,0.438,0.327
		c0.187,0.14,0.37,0.283,0.564,0.413c0.176,0.117,0.358,0.219,0.538,0.327c0.177,0.105,0.35,0.215,0.531,0.313
		c0.187,0.1,0.378,0.184,0.568,0.273c0.187,0.089,0.371,0.181,0.562,0.26c0.187,0.077,0.378,0.14,0.567,0.208
		c0.203,0.072,0.403,0.15,0.61,0.213c0.191,0.058,0.385,0.1,0.578,0.148c0.21,0.053,0.417,0.111,0.631,0.153
		c0.223,0.044,0.448,0.071,0.673,0.103c0.187,0.027,0.371,0.063,0.56,0.081c0.418,0.041,0.838,0.063,1.258,0.063
		s0.839-0.022,1.258-0.063c0.191-0.019,0.378-0.055,0.567-0.082c0.222-0.031,0.444-0.058,0.665-0.101
		c0.217-0.044,0.429-0.103,0.642-0.157c0.189-0.047,0.38-0.089,0.566-0.146c0.212-0.063,0.417-0.143,0.624-0.217
		c0.186-0.066,0.371-0.128,0.554-0.203c0.196-0.081,0.385-0.176,0.576-0.267c0.186-0.087,0.372-0.17,0.555-0.267
		c0.185-0.099,0.359-0.21,0.539-0.317c0.178-0.106,0.358-0.207,0.532-0.323c0.188-0.126,0.367-0.266,0.549-0.401
		c0.152-0.114,0.308-0.22,0.456-0.342c0.233-0.19,0.453-0.397,0.673-0.604c0.082-0.078,0.171-0.146,0.252-0.227l51.871-51.598
		c5-4.975,5.021-13.061,0.047-18.063C255.952,321.623,247.864,321.604,242.864,326.575z"/>
</g>
</svg>
