<?xml version="1.0" encoding="utf-8"?>
<!-- Generator: Adobe Illustrator 16.0.0, SVG Export Plug-In . SVG Version: 6.00 Build 0)  -->
<!DOCTYPE svg PUBLIC "-//W3C//DTD SVG 1.1//EN" "http://www.w3.org/Graphics/SVG/1.1/DTD/svg11.dtd">
<svg version="1.1" id="Layer_1" xmlns="http://www.w3.org/2000/svg" xmlns:xlink="http://www.w3.org/1999/xlink" x="0px" y="0px"
	 width="400px" height="400px" viewBox="0 0 400 400" enable-background="new 0 0 400 400" xml:space="preserve">
<path fill="#F5F6FA" d="M200,346.667c-81.002,0-146.667-65.664-146.667-146.667c0-81.002,65.665-146.667,146.667-146.667
	S346.667,118.999,346.667,200C346.667,281.003,281.002,346.667,200,346.667z M200,80c-66.274,0-120,53.726-120,120
	c0,66.273,53.726,120,120,120c66.273,0,120-53.727,120-120C320,133.726,266.273,80,200,80z"/>
<path fill="#F5F6FA" d="M181.333,264l-16-21.334L218.666,200l-53.333-42.666l16-21.334L248,189.334v21.333L181.333,264z"/>
</svg>
