<?xml version="1.0" encoding="utf-8"?>
<!-- Generator: Adobe Illustrator 16.0.0, SVG Export Plug-In . SVG Version: 6.00 Build 0)  -->
<!DOCTYPE svg PUBLIC "-//W3C//DTD SVG 1.1//EN" "http://www.w3.org/Graphics/SVG/1.1/DTD/svg11.dtd">
<svg version="1.1" id="Layer_1" xmlns="http://www.w3.org/2000/svg" xmlns:xlink="http://www.w3.org/1999/xlink" x="0px" y="0px"
	 width="400px" height="400px" viewBox="0 0 400 400" enable-background="new 0 0 400 400" xml:space="preserve">
<g>
	<path fill-rule="evenodd" clip-rule="evenodd" fill="#C23616" d="M199.999,10C95.066,10,10,95.067,10,200
		c0,104.935,85.066,190,190,190c104.934,0,190-85.064,190-190C390,95.067,304.933,10,199.999,10z M199.999,368
		c-92.636,0-168-75.363-168-168c0-92.636,75.363-168,168-168c92.635,0,168,75.364,168,168C368,292.637,292.635,368,199.999,368z"/>
	<g>
		<path fill="#C23616" d="M263.373,112.571h-9V73.666c0-5.522-4.477-10-10-10h-86c-5.522,0-10,4.478-10,10v38.905h-9
			c-5.522,0-10,4.478-10,10v42.078c0,5.522,4.478,10,10,10h11.396l41.698,64.13c0,0,2.85,6.375,8.907,6.375
			c6.059,0,8.906-6.375,8.906-6.375l41.699-64.13h11.395c5.523,0,10-4.478,10-10v-42.078
			C273.373,117.048,268.896,112.571,263.373,112.571z M232.373,85.666v26.905h-62V85.666H232.373z M201.373,212.119l-24.362-37.47
			h48.726L201.373,212.119z M251.373,152.649h-88.667h-11.333v-18.078h100V152.649z"/>
		<path fill="#C23616" d="M280.814,327.346H124.585c-15.205,0-27.576-12.371-27.576-27.576s12.371-27.576,27.576-27.576
			l57.958-0.004c4.742,0,7.145-2.1,7.145-6.244v-5.057c0-6.082,4.932-11.012,11.014-11.012c6.082,0,11.012,4.93,11.012,11.012v5.057
			c0,16.381-12.268,28.27-29.17,28.27l-57.958,0.004c-3.061,0-5.551,2.49-5.551,5.551s2.49,5.551,5.551,5.551h156.229
			c6.082,0,11.012,4.93,11.012,11.012S286.896,327.346,280.814,327.346z"/>
	</g>
</g>
</svg>
