<?xml version="1.0" encoding="utf-8"?>
<!-- Generator: Adobe Illustrator 16.0.0, SVG Export Plug-In . SVG Version: 6.00 Build 0)  -->
<!DOCTYPE svg PUBLIC "-//W3C//DTD SVG 1.1//EN" "http://www.w3.org/Graphics/SVG/1.1/DTD/svg11.dtd">
<svg version="1.1" id="Layer_1" xmlns="http://www.w3.org/2000/svg" xmlns:xlink="http://www.w3.org/1999/xlink" x="0px" y="0px"
	 width="400px" height="400px" viewBox="0 0 400 400" enable-background="new 0 0 400 400" xml:space="preserve">
<g>
	<path fill="#F5F6FA" d="M117.33,391.667c-17.488,0-31.717-14.229-31.717-31.717v-58.773H61.61
		c-29.454,0-53.416-24.263-53.416-54.085v-111.21c0-29.812,23.962-54.066,53.416-54.066h45.813V39.385
		c0-17.49,14.228-31.718,31.716-31.718h122.119c17.489,0,31.717,14.228,31.717,31.718v42.431h45.813
		c29.448,0,53.406,24.255,53.406,54.066v111.21c0,29.822-23.958,54.085-53.406,54.085h-24.012v58.773
		c0,17.488-14.22,31.717-31.698,31.717H117.33z M105.438,359.95c0,6.563,5.335,11.903,11.893,11.903h165.748
		c6.553,0,11.884-5.34,11.884-11.903V225.938H105.438V359.95z M338.788,281.344c17.772,0,32.366-14.146,33.521-31.975h-0.037
		V135.882c0-18.888-15.07-34.253-33.593-34.253H61.61c-18.522,0-33.593,15.365-33.593,34.253v111.21
		c0,18.887,15.07,34.252,33.593,34.252h24.003v-65.762c0-5.309,4.353-9.468,9.906-9.468h209.359c5.642,0,9.897,4.07,9.897,9.468
		v65.762H338.788z M273.161,81.815V39.385c0-6.56-5.339-11.896-11.902-11.896H139.14c-6.563,0-11.901,5.336-11.901,11.896v42.431
		H273.161z"/>
	<rect x="77.982" y="140.694" fill="#F5F6FA" width="28.545" height="19.815"/>
	<g>
		<path fill="#F5F6FA" d="M156.083,281.847c0,1.622,0.122,3.11,0.365,4.461c0.243,1.353,0.608,2.65,1.095,3.894
			c0.486,1.245,1.122,2.447,1.906,3.609c0.783,1.164,1.744,2.366,2.88,3.609c1.46,1.569,2.933,3.11,4.42,4.624
			c1.487,1.515,2.852,2.813,4.097,3.894c1.026,0.92,1.432,2.015,1.217,3.284c-0.217,1.271-0.73,2.34-1.542,3.204
			c-0.379,0.379-0.839,0.704-1.379,0.974c-0.541,0.271-1.095,0.446-1.662,0.527c-0.568,0.081-1.136,0.04-1.703-0.122
			c-0.568-0.162-1.096-0.458-1.582-0.892c-1.082-0.974-2.259-2.096-3.528-3.366c-1.271-1.271-2.555-2.608-3.853-4.016
			c-2.164-2.271-3.65-3.987-4.462-5.15c-0.811-1.162-1.298-2.149-1.46-2.961h-0.081c-0.108,0.487-0.283,0.987-0.527,1.501
			c-0.243,0.515-0.581,1.082-1.014,1.703c-0.434,0.622-1.014,1.353-1.744,2.19c-0.729,0.839-1.636,1.825-2.717,2.96
			c-1.298,1.407-2.637,2.786-4.016,4.137c-1.379,1.353-2.879,2.786-4.501,4.3c-1.028,0.92-2.178,1.204-3.447,0.852
			c-1.271-0.352-2.285-0.933-3.042-1.744c-0.812-0.919-1.244-2-1.298-3.244c-0.055-1.244,0.405-2.325,1.379-3.245
			c3.353-3.082,6.489-6.218,9.409-9.409c1.136-1.243,2.095-2.445,2.879-3.609c0.783-1.162,1.42-2.364,1.906-3.609
			c0.487-1.243,0.852-2.541,1.096-3.894c0.243-1.351,0.364-2.839,0.364-4.461v-11.355c0-1.567,0.527-2.703,1.582-3.407
			c1.055-0.702,2.284-1.054,3.69-1.054c1.405,0,2.637,0.352,3.69,1.054c1.055,0.704,1.582,1.84,1.582,3.407V281.847z
			 M189.015,328.811c0,1.514-0.527,2.622-1.582,3.326c-1.055,0.702-2.285,1.054-3.69,1.054c-1.353,0-2.555-0.352-3.609-1.054
			c-1.055-0.704-1.582-1.813-1.582-3.326v-62.132c0-1.513,0.527-2.622,1.582-3.325c1.055-0.702,2.257-1.055,3.609-1.055
			c1.405,0,2.636,0.353,3.69,1.055c1.055,0.703,1.582,1.813,1.582,3.325V328.811z"/>
		<path fill="#F5F6FA" d="M228.272,275.195v2.028c0,2.487,0.378,4.57,1.136,6.245c0.756,1.677,2,3.245,3.73,4.705
			c1.785,1.46,3.447,2.771,4.989,3.934c1.541,1.163,2.905,2.178,4.096,3.042c1.136,0.811,1.729,1.798,1.784,2.96
			c0.054,1.164-0.298,2.259-1.055,3.285c-0.324,0.434-0.703,0.825-1.135,1.177c-0.434,0.352-0.934,0.608-1.501,0.771
			s-1.163,0.202-1.784,0.121c-0.622-0.081-1.258-0.337-1.906-0.771c-0.92-0.648-2.068-1.5-3.447-2.555s-2.88-2.23-4.502-3.528
			c-1.946-1.568-3.285-2.784-4.015-3.65c-0.73-0.864-1.204-1.675-1.42-2.434h-0.081c-0.217,0.921-0.729,1.866-1.541,2.839
			c-0.812,0.974-2.19,2.245-4.137,3.813c-3.137,2.488-6.273,4.841-9.409,7.057c-1.189,0.866-2.38,1.068-3.568,0.608
			c-1.19-0.458-2.083-1.121-2.677-1.987c-0.704-0.973-1.055-2.081-1.055-3.325c0-1.243,0.621-2.298,1.865-3.163
			c1.838-1.298,3.582-2.568,5.232-3.813c1.648-1.243,3.366-2.596,5.15-4.056c1.729-1.46,2.973-3.027,3.731-4.704
			c0.756-1.676,1.135-3.758,1.135-6.246v-2.353h-12.085c-1.245,0-2.164-0.432-2.758-1.298c-0.596-0.864-0.893-1.892-0.893-3.082
			c0-1.188,0.297-2.217,0.893-3.082c0.594-0.864,1.513-1.298,2.758-1.298h33.742c1.243,0,2.162,0.434,2.758,1.298
			c0.595,0.865,0.893,1.894,0.893,3.082c0,1.19-0.298,2.218-0.893,3.082c-0.596,0.866-1.515,1.298-2.758,1.298H228.272z
			 M248.956,320.294c0-1.243-0.622-1.865-1.866-1.865h-33.418c-1.244,0-2.163-0.433-2.758-1.298
			c-0.596-0.864-0.892-1.893-0.892-3.083c0-1.188,0.296-2.216,0.892-3.082c0.595-0.864,1.514-1.298,2.758-1.298h38.771
			c2.596,0,4.394,0.487,5.395,1.46c1,0.974,1.5,2.731,1.5,5.272v17.764c0,1.514-0.527,2.622-1.581,3.325
			c-1.055,0.702-2.259,1.055-3.609,1.055c-1.353,0-2.556-0.353-3.61-1.055c-1.054-0.703-1.581-1.812-1.581-3.325V320.294z
			 M266.963,279.332c1.298,0,2.243,0.434,2.839,1.298c0.595,0.866,0.893,1.92,0.893,3.164s-0.298,2.312-0.893,3.203
			c-0.596,0.893-1.541,1.339-2.839,1.339h-7.625v13.951c0,1.515-0.527,2.623-1.581,3.325c-1.055,0.704-2.259,1.055-3.609,1.055
			c-1.353,0-2.556-0.351-3.61-1.055c-1.054-0.702-1.581-1.811-1.581-3.325v-35.608c0-1.513,0.527-2.622,1.581-3.325
			c1.055-0.702,2.258-1.055,3.61-1.055c1.351,0,2.555,0.353,3.609,1.055c1.054,0.703,1.581,1.813,1.581,3.325v12.653H266.963z"/>
	</g>
</g>
</svg>
