<?xml version="1.0" encoding="utf-8"?>
<!-- Generator: Adobe Illustrator 16.0.0, SVG Export Plug-In . SVG Version: 6.00 Build 0)  -->
<!DOCTYPE svg PUBLIC "-//W3C//DTD SVG 1.1//EN" "http://www.w3.org/Graphics/SVG/1.1/DTD/svg11.dtd">
<svg version="1.1" id="Layer_1" xmlns="http://www.w3.org/2000/svg" xmlns:xlink="http://www.w3.org/1999/xlink" x="0px" y="0px"
	 width="400px" height="400px" viewBox="0 0 400 400" enable-background="new 0 0 400 400" xml:space="preserve">
<g>
	<path fill="#0097E6" d="M200.105,9.593c-104.934,0-190,85.066-190,190c0,104.936,85.066,190,190,190s190-85.064,190-190
		C390.105,94.659,305.039,9.593,200.105,9.593z M200.105,367.593c-92.637,0-168-75.363-168-168c0-92.635,75.363-168,168-168
		c92.635,0,168,75.365,168,168C368.105,292.229,292.74,367.593,200.105,367.593z"/>
	<path fill="#0097E6" d="M65.479,162.515h44.268c3.131,0,5.669-2.539,5.669-5.669s-2.539-5.669-5.669-5.669H65.479
		c-3.131,0-5.669,2.539-5.669,5.669S62.348,162.515,65.479,162.515z"/>
	<path fill="#0097E6" d="M94.614,183.176H60.939c-3.131,0-5.669,2.539-5.669,5.669s2.539,5.669,5.669,5.669h33.675
		c3.131,0,5.669-2.539,5.669-5.669S97.745,183.176,94.614,183.176z"/>
	<path fill="#0097E6" d="M88.43,215.177H62.648c-3.131,0-5.669,2.538-5.669,5.669s2.539,5.669,5.669,5.669H88.43
		c3.131,0,5.669-2.538,5.669-5.669S91.561,215.177,88.43,215.177z"/>
	<path fill="#0097E6" d="M86.404,247.205H70.851c-3.131,0-5.669,2.538-5.669,5.669s2.539,5.669,5.669,5.669h15.554
		c3.131,0,5.669-2.538,5.669-5.669S89.535,247.205,86.404,247.205z"/>
	<path fill="#0097E6" d="M268.787,127.649c1.188-5.138,2.379-10.275,3.556-15.416c0.46-2.01-0.177-3.651-2.146-4.349
		c-1.937-0.685-3.502,0.053-4.429,1.956c-0.298,0.611-0.61,1.216-0.909,1.828c-1.935,3.958-3.869,7.915-5.805,11.872
		c-12.621-4.66-26.256-7.208-40.476-7.208c-64.618,0-117.188,52.571-117.188,117.188c0,12.974,2.108,25.723,6.265,37.893
		c1.563,4.576,5.84,7.456,10.42,7.456c1.181,0,2.381-0.191,3.561-0.594c5.756-1.967,8.828-8.227,6.862-13.981
		c-3.373-9.873-5.083-20.228-5.083-30.773c0-52.473,42.69-95.163,95.163-95.163c10.752,0,21.092,1.795,30.739,5.097
		c-9.841,20.127-19.681,40.254-29.521,60.382c-7.024,14.369-14.014,28.755-21.082,43.102c-7.775,15.777,3.872,31.496,18.771,31.275
		c10.553-0.259,18.261-7.003,20.79-18.016c8.454-36.82,16.939-73.634,25.419-110.447c29.775,16.1,50.048,47.611,50.048,83.77
		c0,10.545-1.71,20.897-5.082,30.77c-1.967,5.756,1.105,12.016,6.86,13.981c5.754,1.967,12.017-1.106,13.981-6.86
		c4.157-12.17,6.266-24.918,6.266-37.891C335.768,186.861,308.353,146.488,268.787,127.649z M217.994,266.875
		c-5.671-0.019-10.247-4.544-10.315-10.198c-0.067-5.688,4.652-10.415,10.389-10.4c5.624,0.014,10.247,4.594,10.316,10.22
		C228.455,262.194,223.751,266.893,217.994,266.875z"/>
</g>
</svg>
