<?xml version="1.0" encoding="utf-8"?>
<!-- Generator: Adobe Illustrator 16.0.0, SVG Export Plug-In . SVG Version: 6.00 Build 0)  -->
<!DOCTYPE svg PUBLIC "-//W3C//DTD SVG 1.1//EN" "http://www.w3.org/Graphics/SVG/1.1/DTD/svg11.dtd">
<svg version="1.1" id="Layer_1" xmlns="http://www.w3.org/2000/svg" xmlns:xlink="http://www.w3.org/1999/xlink" x="0px" y="0px"
	 width="400px" height="400px" viewBox="0 0 400 400" enable-background="new 0 0 400 400" xml:space="preserve">
<g>
	<path fill-rule="evenodd" clip-rule="evenodd" fill="#F5F6FA" d="M348.167,231.272c-6.138-4.714-9.418-5.421-12.157-12.257
		c-0.437-1.096-0.284-4.844,0.263-5.862c7.446-13.896,7.347-21.319,0.189-35.284c-0.618-1.208-0.696-3.254-0.086-4.424
		c5.074-9.768,6.861-18.125,4.294-28.982c-0.24-1.006,0.404-2.533,1.241-3.677c2.681-2.304,5.152-4.678,7.401-7.119
		c6.505-6.604,11.537-13.68,13.985-23.323c1.059-4.158,1.557-8.184,1.568-12.094c0-0.081,0.005-0.163,0.005-0.248
		c0-0.056-0.003-0.108-0.003-0.16c-0.004-0.596-0.02-1.188-0.046-1.781c-0.012-0.298-0.035-0.59-0.056-0.886
		c-0.02-0.32-0.043-0.639-0.068-0.956c-0.026-0.313-0.055-0.623-0.088-0.935c-0.05-0.471-0.113-0.938-0.179-1.401
		c-0.03-0.222-0.061-0.438-0.095-0.66c-0.085-0.554-0.18-1.105-0.291-1.656c-0.019-0.099-0.037-0.195-0.057-0.293
		c-1.8-9.02-6.286-17.352-12.74-25.092c-12.064-14.475-27.922-23.637-45.041-30.759c-6.52-2.705-13.129-5.021-19.813-7.001
		c-25.143-7.903-54.754-12.463-86.457-12.463C108.843,13.959,35,51.587,35,98.002c0,15.752,8.517,30.498,23.326,43.099
		c0.976,1.522,1.423,3.607,0.958,5.392c-2.676,10.363-1.052,16.892,4.012,26.206c1.087,1.998,1.176,3.542,0.096,5.602
		c-7.235,13.772-7.162,21.144,0.268,34.868c0.401,0.738,0.535,1.882,0.688,2.404c1.549,5.19-4.211,7.422-9.346,11.742
		c-11.362,9.555-18.275,18.339-19.698,33.481c-1.576,16.776,5.235,30.581,16.64,42.337c14.014,14.442,31.543,23.104,50.266,29.648
		c16.563,5.784,61.483,16.082,78.893,18.022c2.214,0.249,3.302,1.119,4.298,3.01c13.31,25.149,39.81,35.146,66.834,35.146
		c52.872,0,54.969,0,107.843,0c0-22.796,0-42.922,0-66.104c-29.539,0-8.035,0-38.367,0c5.421-3.553,10.052-6.337,14.41-9.495
		c10.582-7.678,19.476-16.892,24.646-29.118c7.354-17.397,4.944-29.753-5.764-44.893
		C353.091,236.653,350.733,233.249,348.167,231.272z M57.99,98.002c0-12.998,13.368-27.57,35.767-38.982
		c27.572-14.046,66.275-22.104,106.182-22.104c39.903,0,78.604,8.058,106.175,22.104c22.398,11.412,35.773,25.984,35.773,38.982
		c0,12.995-13.375,27.568-35.773,38.98c-27.571,14.046-66.271,22.104-106.175,22.104c-39.906,0-78.609-8.058-106.182-22.104
		C71.358,125.57,57.99,110.997,57.99,98.002z M315.506,204.318c-5.091,8.681-12.812,12.158-21.438,16.767
		c-16.306,8.705-33.946,13.067-52.16,15.301c-24.791,3.044-80.466,2.044-104.786-3.794c-15.849-3.801-30.979-9.482-43.855-19.884
		c-5.631-4.554-10.325-6.777-11.671-14.225c-0.448-2.492-0.205-1.789-0.205-4.946c31.668,21.248,82.254,27.808,118.646,27.82
		c36.396,0.011,86.613-6.514,118.017-27.531C318.815,196.899,318.14,199.829,315.506,204.318z M314.891,245.911
		c-6.146,9.24-15.268,14.878-24.995,19.528c-16.861,8.058-40.222,12.587-58.711,14.425c-0.86,0.084-2.144-0.259-2.629-0.869
		c-5.36-6.885-11.268-11.858-19.793-17.027c35.419-1.137,78.762-7.943,109.11-28.579
		C318.777,236.939,318.112,241.073,314.891,245.911z M81.582,156.523c29.975,15.735,71.918,25.52,118.356,25.52
		c46.356,0,88.239-9.754,118.207-25.438c-1.276,6.149-4.648,10.281-8.713,14.133c-10.044,9.524-22.289,15.331-35.332,19.17
		c-41.44,12.213-113.844,12.005-154.796-2.282c-12.246-4.271-23.63-10.353-32.225-20.526
		C84.429,163.96,82.313,161.156,81.582,156.523z M74.775,292.964c-7.21-5.47-13.179-12.056-15.785-21.025
		c-2.2-7.575-0.596-11.174,3.787-17.914c12.87,21.403,33.172,31.702,55.452,39.193c3.017,1.015,6.03,2.036,9.059,3.032
		c13.001,4.271,47.902,16.759,49.395,30.979C149.885,322.819,96.557,309.483,74.775,292.964z M331.968,345.684
		c1.521,0,3.043,0,4.841,0c0,7.628,0,12.397,0,20.317c-1.337,0-2.688,0-4.046,0c-40.356,0.014-29.938,0.178-70.289,0.178
		c-33.006,0-52.924-8.336-59.191-37.011c-3.591-16.421-15.013-26.415-26.799-35.577c-8.447-6.57-30.314-13.923-39.398-18.196
		c-11.05-5.195-22.854-8.692-33.927-13.801c-7.193-3.317-13.308-8.537-17.91-15.198c-3.445-4.997-3.96-6.576-3.387-12.84
		c4.521,2.64,8.67,5.739,13.317,7.642c11.88,4.877,23.864,9.541,36.012,13.701c30.283,10.364,79.946,25.737,89.447,56.936
		c1.555,5.104,4.753,11.19,6.699,16.116c5.56,14.079,17.9,17.744,33.574,17.756C301.523,345.733,291.354,345.695,331.968,345.684z
		 M334.724,283.483c-8.416,10.358-19.52,17.013-31.458,22.431c-15.188,6.893-31.196,11.014-47.598,13.707
		c-3.845,0.626-6.032-0.93-7.169-5.373c-1.318-5.166-2.386-7.058-3.688-12.8c4.132-0.701,8.359-1.338,12.548-2.138
		c21.47-4.096,41.983-10.643,59.927-23.633c7.931-5.747,14.63-12.664,19.582-21.585
		C344.153,264.058,343.258,272.971,334.724,283.483z"/>
	<path fill-rule="evenodd" clip-rule="evenodd" fill="#F5F6FA" d="M199.69,132.98c40.465,0,73.269-15.846,73.269-35.4
		c0-19.547-32.804-35.395-73.269-35.395c-40.459,0-73.265,15.848-73.265,35.395C126.426,117.135,159.231,132.98,199.69,132.98z
		 M199.69,85.136c26.388,0,48.938,6.646,48.938,12.444c0,5.8-22.552,12.445-48.938,12.445c-26.385,0-48.934-8.35-48.934-12.445
		C150.757,93.493,173.304,85.136,199.69,85.136z"/>
</g>
</svg>
